<?xml version="1.0" encoding="UTF-8"?>
<svg width="200px" height="165px" viewBox="0 0 200 165" version="1.1" xmlns="http://www.w3.org/2000/svg" xmlns:xlink="http://www.w3.org/1999/xlink">
    <defs>
        <linearGradient x1="-3.16999512%" y1="49.9980794%" x2="102.379859%" y2="49.9980794%" id="linearGradient-1">
            <stop stop-color="#00774B" offset="0%"></stop>
            <stop stop-color="#006AB1" offset="100%"></stop>
        </linearGradient>
        <linearGradient x1="-25.1907078%" y1="50.0009663%" x2="100.299611%" y2="50.0009663%" id="linearGradient-2">
            <stop stop-color="#00774B" offset="0%"></stop>
            <stop stop-color="#0072B9" offset="100%"></stop>
        </linearGradient>
        <linearGradient x1="0.578535492%" y1="49.9999232%" x2="301.758317%" y2="49.9999232%" id="linearGradient-3">
            <stop stop-color="#00774B" offset="0%"></stop>
            <stop stop-color="#0072B9" offset="100%"></stop>
        </linearGradient>
        <linearGradient x1="-0.631522888%" y1="50.000709%" x2="99.3660516%" y2="50.000709%" id="linearGradient-4">
            <stop stop-color="#00774B" offset="0%"></stop>
            <stop stop-color="#0072B9" offset="100%"></stop>
        </linearGradient>
        <linearGradient x1="0.000315940793%" y1="50.0003406%" x2="95.6499692%" y2="50.0003406%" id="linearGradient-5">
            <stop stop-color="#00774B" offset="0%"></stop>
            <stop stop-color="#FFFFFF" offset="100%"></stop>
        </linearGradient>
        <linearGradient x1="0.000315940793%" y1="49.9993188%" x2="95.6499692%" y2="49.9993188%" id="linearGradient-6">
            <stop stop-color="#FFFFFF" offset="0%"></stop>
            <stop stop-color="#0072B9" offset="100%"></stop>
        </linearGradient>
        <linearGradient x1="-0.000315940793%" y1="50.0003406%" x2="95.6493373%" y2="50.0003406%" id="linearGradient-7">
            <stop stop-color="#00774B" offset="0%"></stop>
            <stop stop-color="#FFFFFF" offset="100%"></stop>
        </linearGradient>
        <linearGradient x1="0.000631881585%" y1="50.0010218%" x2="95.6502851%" y2="50.0010218%" id="linearGradient-8">
            <stop stop-color="#FFFFFF" offset="0%"></stop>
            <stop stop-color="#0072B9" offset="100%"></stop>
        </linearGradient>
        <linearGradient x1="-0.000473918676%" y1="49.9989781%" x2="100.00079%" y2="49.9989781%" id="linearGradient-9">
            <stop stop-color="#00774B" offset="0%"></stop>
            <stop stop-color="#FFFFFF" offset="100%"></stop>
        </linearGradient>
        <linearGradient x1="-0.000473911189%" y1="50.0003406%" x2="95.6491793%" y2="50.0003406%" id="linearGradient-10">
            <stop stop-color="#FFFFFF" offset="0%"></stop>
            <stop stop-color="#0072B9" offset="100%"></stop>
        </linearGradient>
    </defs>
    <g id="Site-web-public" stroke="none" stroke-width="1" fill="none" fill-rule="evenodd">
        <g id="MASE-accueil-Copy" transform="translate(-130.000000, -94.000000)" fill-rule="nonzero">
            <g id="logo" transform="translate(130.000000, 94.000000)">
                <path d="M79.54,84.765 C79.54,84.765 28.732,94.529 0.87,141.712 C0.87,141.712 9.065,96.155 79.54,84.765 Z" id="Shape" fill="url(#linearGradient-1)"></path>
                <path d="M143.505,123.548 C163.378,120.177 182.438,113.603 193.977,103.581 C217.467,83.185 154.665,79.613 125.901,82.164 C97.137,84.714 73.39,92.997 73.39,92.997 C73.39,92.997 123.025,84.714 158.5,94.913 C183.08,101.979 163.012,109.536 138.958,113.681" id="Shape" fill="url(#linearGradient-2)"></path>
                <path d="M68.758,107.962 C46.764,97.528 31.67,75.704 72.208,31.68 L93.781,15.361 C93.781,15.361 53.512,28.621 43.444,67.886 C36.547,94.784 47.766,108.732 63.451,116.507" id="Shape" fill="url(#linearGradient-3)"></path>
                <path d="M59.301,29.854 L114.986,0.612 C114.986,0.612 75.512,31.525 69.874,45.727 C64.234,59.931 59.301,29.854 59.301,29.854 Z" id="Shape" fill="url(#linearGradient-4)"></path>
                <polygon id="Shape" fill="url(#linearGradient-5)" points="104.008 17.255 148.043 16.337 126.943 45.696 84.74 45.696"></polygon>
                <polygon id="Shape" fill="url(#linearGradient-6)" points="99.8 40.6 143.836 39.683 122.735 69.041 80.533 69.041"></polygon>
                <polygon id="Shape" fill="url(#linearGradient-7)" points="68.608 52.068 112.644 51.15 91.544 80.509 49.341 80.509"></polygon>
                <polygon id="Shape" fill="url(#linearGradient-8)" points="90.627 66.746 134.662 65.829 113.562 95.188 71.359 95.188"></polygon>
                <polygon id="Shape" fill="url(#linearGradient-9)" points="125.489 49.315 169.524 48.398 148.425 77.756 106.222 77.756"></polygon>
                <polygon id="Shape" fill="url(#linearGradient-10)" points="120.902 75.004 164.938 74.086 143.838 103.444 101.635 103.444"></polygon>
                <polygon id="Shape" fill="#0072B9" points="38.942 132.556 51.525 132.55 56.284 151.599 61.043 132.545 73.566 132.539 73.582 163.851 65.77 163.855 65.758 139.972 59.792 163.858 52.725 163.861 46.758 139.981 46.77 163.864 38.958 163.868"></polygon>
                <path d="M98.67,158.651 L87.905,158.656 L86.36,163.844 L76.625,163.849 L88.169,132.531 L98.589,132.526 L110.188,163.833 L100.22,163.838 L98.67,158.651 Z M96.643,151.902 L93.27,140.646 L89.916,151.905 L96.643,151.902 Z" id="Shape" fill="#0072B9"></path>
                <path d="M111.571,153.478 L120.633,152.891 C120.831,154.403 121.233,155.553 121.838,156.344 C122.822,157.624 124.231,158.264 126.06,158.263 C127.425,158.262 128.477,157.937 129.214,157.284 C129.952,156.634 130.322,155.879 130.321,155.019 C130.321,154.204 129.965,153.474 129.254,152.83 C128.543,152.187 126.907,151.579 124.351,151.009 C120.163,150.052 117.176,148.781 115.391,147.198 C113.591,145.615 112.691,143.596 112.69,141.141 C112.689,139.528 113.149,138.003 114.069,136.569 C114.989,135.135 116.374,134.007 118.221,133.185 C120.068,132.363 122.604,131.952 125.823,131.95 C129.773,131.948 132.786,132.691 134.86,134.179 C136.934,135.667 138.169,138.034 138.565,141.282 L129.565,141.824 C129.325,140.406 128.82,139.374 128.051,138.73 C127.28,138.085 126.219,137.763 124.864,137.763 C123.75,137.764 122.912,138.004 122.347,138.485 C121.783,138.964 121.5,139.547 121.501,140.234 C121.501,140.735 121.735,141.186 122.206,141.587 C122.663,142.002 123.733,142.387 125.421,142.743 C129.594,143.657 132.584,144.581 134.39,145.515 C136.197,146.449 137.511,147.607 138.334,148.992 C139.157,150.376 139.568,151.924 139.569,153.636 C139.57,155.649 139.023,157.504 137.929,159.203 C136.835,160.901 135.307,162.19 133.342,163.068 C131.378,163.946 128.901,164.386 125.911,164.388 C120.661,164.391 117.025,163.365 115.004,161.311 C112.984,159.258 111.84,156.646 111.571,153.478 Z" id="Shape" fill="#0072B9"></path>
                <polygon id="Shape" fill="#0072B9" points="144.302 132.503 169.864 132.49 169.868 139.178 153.868 139.187 153.87 144.187 168.682 144.179 168.686 150.554 153.874 150.562 153.877 156.75 170.315 156.741 170.318 163.803 144.318 163.816"></polygon>
                <polygon id="Shape" fill="#1A171B" points="68.68 108.15 70.847 108.908 71.816 115.231 73.68 109.898 75.878 110.666 72.507 120.312 70.309 119.543 69.346 113.254 67.492 118.559 65.309 117.796"></polygon>
                <path d="M75.475,115.903 C75.915,114.295 76.607,113.138 77.552,112.433 C78.497,111.729 79.594,111.547 80.843,111.888 C82.123,112.239 82.99,112.949 83.442,114.019 C83.894,115.088 83.903,116.416 83.469,118.002 C83.154,119.153 82.744,120.056 82.24,120.71 C81.736,121.364 81.141,121.818 80.457,122.072 C79.772,122.325 79.004,122.335 78.15,122.101 C77.282,121.864 76.612,121.491 76.141,120.981 C75.669,120.472 75.361,119.786 75.218,118.923 C75.074,118.062 75.16,117.055 75.475,115.903 Z M77.852,116.569 C77.58,117.564 77.529,118.318 77.698,118.832 C77.867,119.346 78.199,119.67 78.696,119.806 C79.205,119.946 79.658,119.84 80.054,119.491 C80.45,119.142 80.799,118.416 81.1,117.314 C81.354,116.385 81.393,115.668 81.219,115.161 C81.045,114.653 80.708,114.331 80.209,114.194 C79.73,114.063 79.287,114.175 78.878,114.531 C78.469,114.887 78.126,115.565 77.852,116.569 Z" id="Shape" fill="#1A171B"></path>
                <path d="M83.721,123.372 L85.78,113.363 L89.806,114.191 C90.553,114.344 91.106,114.544 91.467,114.789 C91.828,115.034 92.084,115.404 92.234,115.898 C92.384,116.392 92.394,116.958 92.263,117.595 C92.148,118.151 91.957,118.612 91.688,118.977 C91.419,119.341 91.097,119.616 90.721,119.799 C90.481,119.916 90.17,119.989 89.787,120.021 C90.049,120.203 90.233,120.37 90.339,120.519 C90.411,120.62 90.503,120.822 90.616,121.125 C90.729,121.429 90.799,121.659 90.826,121.816 L91.403,124.951 L88.675,124.39 L88.013,121.071 C87.93,120.642 87.837,120.355 87.733,120.211 C87.59,120.021 87.408,119.902 87.187,119.857 L86.973,119.812 L86.139,123.868 L83.721,123.372 Z M87.363,117.916 L88.389,118.127 C88.5,118.15 88.724,118.148 89.062,118.123 C89.231,118.115 89.385,118.038 89.521,117.891 C89.657,117.744 89.749,117.56 89.793,117.341 C89.859,117.018 89.83,116.753 89.705,116.547 C89.579,116.341 89.294,116.193 88.85,116.101 L87.781,115.881 L87.363,117.916 Z" id="Shape" fill="#1A171B"></path>
                <polygon id="Shape" fill="#1A171B" points="93.838 115.012 97.059 115.445 97.467 121.772 99.536 115.778 102.742 116.209 101.382 126.337 99.384 126.068 100.422 118.341 97.827 125.859 96.026 125.617 95.513 117.682 94.475 125.408 92.477 125.14"></polygon>
                <path d="M108.267,125.108 L105.483,124.934 L104.977,126.593 L102.463,126.437 L106.086,116.424 L108.78,116.592 L111.133,126.977 L108.56,126.817 L108.267,125.108 Z M107.882,122.877 L107.245,119.153 L106.142,122.768 L107.882,122.877 Z" id="Shape" fill="#1A171B"></path>
                <polygon id="Shape" fill="#1A171B" points="112.185 116.773 114.481 116.756 117.521 122.385 117.482 116.736 119.81 116.72 119.88 126.938 117.552 126.954 114.529 121.356 114.568 126.975 112.256 126.991"></polygon>
                <path d="M121.075,116.656 L124.727,116.369 C125.447,116.312 126.039,116.391 126.501,116.606 C126.964,116.822 127.358,117.152 127.685,117.597 C128.011,118.041 128.264,118.57 128.443,119.18 C128.623,119.79 128.739,120.444 128.794,121.138 C128.88,122.227 128.85,123.078 128.703,123.694 C128.556,124.31 128.328,124.833 128.016,125.265 C127.704,125.698 127.356,125.996 126.972,126.161 C126.448,126.39 125.967,126.52 125.53,126.555 L121.878,126.843 L121.075,116.656 Z M123.718,118.768 L124.156,124.33 L124.76,124.282 C125.275,124.241 125.635,124.139 125.841,123.976 C126.047,123.814 126.197,123.545 126.292,123.172 C126.387,122.799 126.402,122.205 126.338,121.391 C126.253,120.313 126.057,119.585 125.75,119.209 C125.443,118.832 124.971,118.669 124.333,118.72 L123.718,118.768 Z" id="Shape" fill="#1A171B"></path>
                <polygon id="Shape" fill="#1A171B" points="129.424 115.904 131.871 115.581 133.21 125.711 130.763 126.034"></polygon>
                <polygon id="Shape" fill="#1A171B" points="133.295 115.407 139.779 114.209 140.175 116.36 136.119 117.109 136.414 118.707 140.179 118.012 140.556 120.056 136.792 120.751 137.157 122.733 141.337 121.961 141.757 124.235 135.151 125.455"></polygon>
            </g>
        </g>
    </g>
</svg>